<mxfile host="app.diagrams.net" modified="2023-11-07T07:17:58.106Z" agent="Mozilla/5.0 (Windows NT 10.0; Win64; x64) AppleWebKit/537.36 (KHTML, like Gecko) Chrome/119.0.0.0 Safari/537.36" version="22.0.8" etag="adS8Oy5PJE8qo8w78xqX" type="github">
  <diagram name="Page-1" id="G7CP4_bbnSXrdPONkRH2">
    <mxGraphModel>
      <root>
        <mxCell id="0" />
        <mxCell id="1" parent="0" />
      </root>
    </mxGraphModel>
  </diagram>
</mxfile>
